<?xml version="1.0" encoding="utf-8"?>
<!-- Generator: Adobe Illustrator 26.3.1, SVG Export Plug-In . SVG Version: 6.00 Build 0)  -->
<svg version="1.1" id="Layer_1" xmlns="http://www.w3.org/2000/svg" xmlns:xlink="http://www.w3.org/1999/xlink" x="0px" y="0px"
	 viewBox="0 0 24 24" style="enable-background:new 0 0 24 24;" xml:space="preserve">
<style type="text/css">
	.st0{fill:#FFFFFF;}
</style>
<path class="st0" d="M15,4.1v18c-0.5,0-1.1-0.1-1.6-0.3L10,20.7V2.7c0.2,0,0.4,0.1,0.6,0.2L14.1,4C14.4,4.1,14.7,4.1,15,4.1L15,4.1z
	 M17,3.6l3.7-1.2c0.5-0.2,1.1,0.1,1.3,0.6C22,3.1,22,3.2,22,3.4v16c0,0.4-0.3,0.8-0.7,1L17,21.7V3.6z M8,2.7v18.1l-4.7,1.6
	c-0.5,0.2-1.1-0.1-1.3-0.6C2,21.6,2,21.5,2,21.4v-16c0-0.4,0.3-0.8,0.7-1l4.7-1.6C7.6,2.8,7.8,2.7,8,2.7z"/>
</svg>
