<?xml version="1.0" encoding="utf-8"?>
<!-- Generator: Adobe Illustrator 26.3.1, SVG Export Plug-In . SVG Version: 6.00 Build 0)  -->
<svg version="1.1" id="Layer_1" xmlns="http://www.w3.org/2000/svg" xmlns:xlink="http://www.w3.org/1999/xlink" x="0px" y="0px"
	 viewBox="0 0 30 30" style="enable-background:new 0 0 30 30;" xml:space="preserve">
<style type="text/css">
	.st0{fill:#FF385C;}
	.st1{fill:#FFFFFF;}
</style>
<circle class="st0" cx="15" cy="15" r="15"/>
<path class="st1" d="M13.8,7.9c-3.3,0-5.9,2.7-5.9,5.9s2.7,5.9,5.9,5.9c1.4,0,2.7-0.5,3.7-1.3l3.5,3.5c0.2,0.2,0.6,0.2,0.8,0
	c0.2-0.2,0.2-0.6,0-0.8c0,0,0,0,0,0l-3.5-3.5c0.8-1,1.3-2.3,1.3-3.7C19.7,10.6,17.1,7.9,13.8,7.9z M13.8,9.1c2.6,0,4.7,2.1,4.7,4.7
	s-2.1,4.7-4.7,4.7s-4.7-2.1-4.7-4.7S11.2,9.1,13.8,9.1z"/>
</svg>
