<?xml version="1.0" encoding="utf-8"?>
<!-- Generator: Adobe Illustrator 26.3.1, SVG Export Plug-In . SVG Version: 6.00 Build 0)  -->
<svg version="1.1" id="Layer_1" xmlns="http://www.w3.org/2000/svg" xmlns:xlink="http://www.w3.org/1999/xlink" x="0px" y="0px"
	 viewBox="0 0 30 30" style="enable-background:new 0 0 30 30;" xml:space="preserve">
<style type="text/css">
	.st0{fill:#717171;}
</style>
<path class="st0" d="M15,0C6.7,0,0,6.7,0,15s6.7,15,15,15s15-6.7,15-15S23.3,0,15,0z M11.4,8.4c0.9-1,2.2-1.5,3.6-1.5
	s2.7,0.5,3.6,1.5c0.9,1,1.4,2.3,1.3,3.7c-0.2,2.8-2.4,5.1-4.9,5.1s-4.7-2.3-4.9-5.1C10,10.7,10.5,9.4,11.4,8.4z M15,27.7
	c-3.4,0-6.7-1.4-9.1-3.8c0.7-1,1.5-1.8,2.5-2.4c1.8-1.2,4.2-1.8,6.6-1.8s4.7,0.6,6.6,1.8c1,0.6,1.9,1.4,2.5,2.4
	C21.7,26.3,18.4,27.7,15,27.7z"/>
</svg>
