<?xml version="1.0" encoding="utf-8"?>
<!-- Generator: Adobe Illustrator 26.3.1, SVG Export Plug-In . SVG Version: 6.00 Build 0)  -->
<svg version="1.1" id="Layer_1" xmlns="http://www.w3.org/2000/svg" xmlns:xlink="http://www.w3.org/1999/xlink" x="0px" y="0px"
	 viewBox="0 0 20 6.2" style="enable-background:new 0 0 20 6.2;" xml:space="preserve">
<style type="text/css">
	.st0{fill:#FF5A5F;}
</style>
<path class="st0" d="M10.5,1.6c0,0.2-0.2,0.4-0.4,0.4C9.9,2,9.7,1.8,9.7,1.6s0.2-0.4,0.4-0.4C10.4,1.2,10.5,1.3,10.5,1.6z M8.9,2.4
	L8.9,2.4c0,0.1-0.2-0.2-0.6-0.2C7.6,2.2,7,2.8,7,3.5c0,0.7,0.5,1.2,1.2,1.2c0.4,0,0.6-0.3,0.6-0.3v0.1c0,0,0,0.1,0.1,0.1h0.5V2.3
	L8.9,2.4C8.9,2.3,8.9,2.3,8.9,2.4L8.9,2.4z M8.9,3.9C8.8,4,8.6,4.1,8.4,4.1C8,4.1,7.7,3.9,7.7,3.5C7.7,3,8,2.8,8.4,2.8
	c0.2,0,0.4,0.1,0.5,0.3V3.9z M9.8,2.3h0.6v2.3H9.8V2.3L9.8,2.3z M18.8,2.2c-0.4,0-0.6,0.3-0.6,0.3V1.2h-0.6v3.5h0.5
	c0,0,0.1,0,0.1-0.1V4.5c0,0,0.2,0.3,0.6,0.3c0.7,0,1.2-0.5,1.2-1.2S19.5,2.2,18.8,2.2L18.8,2.2z M18.7,4.1c-0.2,0-0.4-0.1-0.5-0.3V3
	c0.1-0.1,0.3-0.3,0.5-0.3c0.4,0,0.7,0.2,0.7,0.7S19.1,4.1,18.7,4.1z M17.3,3.3v1.4h-0.6V3.3c0-0.4-0.1-0.5-0.5-0.5
	c-0.2,0-0.4,0.1-0.5,0.2v1.6h-0.6V2.3h0.5c0,0,0.1,0,0.1,0.1v0.1c0.2-0.2,0.4-0.3,0.6-0.3c0.3,0,0.5,0.1,0.7,0.2
	C17.2,2.6,17.3,2.9,17.3,3.3L17.3,3.3z M13.7,2.2c-0.4,0-0.6,0.3-0.6,0.3V1.2h-0.6v3.5H13c0,0,0.1,0,0.1-0.1V4.5
	c0,0,0.2,0.3,0.6,0.3c0.7,0,1.2-0.5,1.2-1.2C14.9,2.8,14.4,2.2,13.7,2.2L13.7,2.2z M13.6,4.1c-0.2,0-0.4-0.1-0.5-0.3V3
	c0.1-0.1,0.3-0.3,0.5-0.3c0.4,0,0.7,0.2,0.7,0.7S14,4.1,13.6,4.1z M11.9,2.2c0.2,0,0.3,0,0.3,0v0.6c0,0-0.5-0.2-0.8,0.2v1.6h-0.6
	V2.3h0.5c0,0,0.1,0,0.1,0.1v0.1C11.5,2.4,11.8,2.2,11.9,2.2L11.9,2.2z M5.7,4.4c0-0.1-0.1-0.2-0.1-0.2C5.6,4.1,5.5,4,5.5,3.9l0,0
	C5,2.9,4.6,2,4.1,1.1l0,0C4,0.9,4,0.8,3.9,0.7C3.9,0.6,3.8,0.5,3.7,0.4C3.5,0.1,3.2,0,2.9,0C2.6,0,2.3,0.1,2.1,0.4
	C2,0.5,1.9,0.6,1.9,0.7c0,0.1-0.1,0.2-0.1,0.3l0,0C1.2,2,0.8,2.9,0.3,3.9l0,0c0,0.1-0.1,0.2-0.1,0.3c0,0.1-0.1,0.1-0.1,0.2
	C0,4.7,0,4.9,0,5.1c0.1,0.5,0.4,0.9,0.8,1C1,6.2,1.2,6.2,1.3,6.2c0,0,0.1,0,0.2,0c0.2,0,0.4-0.1,0.6-0.2c0.3-0.1,0.5-0.3,0.8-0.6
	C3.2,5.7,3.4,5.9,3.7,6c0.2,0.1,0.4,0.2,0.6,0.2c0,0,0.1,0,0.2,0c0.2,0,0.3,0,0.5-0.1c0.4-0.2,0.7-0.6,0.8-1
	C5.8,4.9,5.8,4.7,5.7,4.4L5.7,4.4z M2.9,4.8C2.6,4.3,2.3,3.9,2.3,3.6c0-0.1,0-0.3,0-0.4c0-0.1,0-0.2,0.1-0.3
	c0.1-0.2,0.3-0.3,0.5-0.3c0.2,0,0.4,0.1,0.5,0.3c0,0.1,0.1,0.2,0.1,0.3c0,0.1,0,0.2,0,0.4C3.5,3.9,3.2,4.3,2.9,4.8z M5.4,5.1
	c0,0.3-0.3,0.6-0.6,0.7C4.7,5.8,4.5,5.9,4.3,5.8C4.2,5.8,4,5.8,3.9,5.7C3.6,5.6,3.4,5.4,3.2,5.1c0.4-0.5,0.7-1,0.8-1.4
	c0-0.2,0.1-0.4,0-0.5c0-0.2-0.1-0.3-0.2-0.4C3.6,2.5,3.3,2.3,2.9,2.3S2.2,2.5,2,2.7C1.9,2.9,1.9,3,1.8,3.2c0,0.2,0,0.3,0,0.5
	C2,4.1,2.2,4.6,2.6,5.1C2.4,5.4,2.1,5.6,1.9,5.7C1.8,5.8,1.6,5.8,1.4,5.9c-0.2,0-0.3,0-0.5-0.1C0.7,5.7,0.5,5.4,0.4,5.1
	c0-0.2,0-0.3,0.1-0.5c0-0.1,0-0.1,0.1-0.2c0-0.1,0.1-0.2,0.1-0.3l0,0c0.4-0.9,0.9-1.9,1.4-2.8l0,0C2.1,1.1,2.2,1,2.2,0.9
	c0-0.1,0.1-0.2,0.2-0.3c0.1-0.1,0.3-0.2,0.5-0.2c0.2,0,0.4,0.1,0.5,0.2c0.1,0.1,0.1,0.2,0.2,0.3C3.6,1,3.7,1.1,3.7,1.2l0,0
	c0.5,0.9,0.9,1.9,1.4,2.8v0c0.1,0.1,0.1,0.2,0.1,0.3c0,0.1,0.1,0.1,0.1,0.2C5.4,4.7,5.4,4.9,5.4,5.1L5.4,5.1z"/>
</svg>
