<?xml version="1.0" encoding="utf-8"?>
<!-- Generator: Adobe Illustrator 26.3.1, SVG Export Plug-In . SVG Version: 6.00 Build 0)  -->
<svg version="1.1" id="Layer_1" xmlns="http://www.w3.org/2000/svg" xmlns:xlink="http://www.w3.org/1999/xlink" x="0px" y="0px"
	 viewBox="0 0 14 14" style="enable-background:new 0 0 14 14;" xml:space="preserve">
<style type="text/css">
	.st0{fill:#222222;}
</style>
<g>
	<path class="st0" d="M10.4,7.2c2,0,3.6-1.6,3.6-3.6c0-2-1.6-3.6-3.6-3.6C8.9,0,7.6,1,7.1,2.4H0v2.4h7.1C7.6,6.2,8.9,7.2,10.4,7.2z
		 M10.4,2.4c0.6,0,1.2,0.5,1.2,1.2s-0.5,1.2-1.2,1.2c-0.6,0-1.2-0.5-1.2-1.2S9.8,2.4,10.4,2.4z"/>
	<path class="st0" d="M3.6,6.8c-2,0-3.6,1.6-3.6,3.6S1.6,14,3.6,14c1.5,0,2.9-1,3.4-2.4H14V9.2H6.9C6.4,7.8,5.1,6.8,3.6,6.8z
		 M3.6,11.6c-0.6,0-1.2-0.5-1.2-1.2s0.5-1.2,1.2-1.2c0.6,0,1.2,0.5,1.2,1.2S4.2,11.6,3.6,11.6z"/>
</g>
</svg>
